<svg width="16" height="15" viewBox="0 0 16 15" fill="none" xmlns="http://www.w3.org/2000/svg">
<path d="M11.386 14.3475C11.2936 14.3215 11.2014 14.2939 11.1107 14.2662C11.1039 14.2648 11.0973 14.2623 11.0913 14.2588C11.0838 14.257 11.0764 14.2551 11.0718 14.2533C11.0615 14.2497 11.051 14.2465 11.0404 14.244C10.9942 14.2293 10.9499 14.2145 10.9074 14.1997C10.8741 14.1886 10.8409 14.1775 10.8099 14.1666C10.7917 14.1612 10.7738 14.1546 10.7563 14.1471C10.7443 14.1444 10.7326 14.1407 10.7212 14.1359H10.7195C10.7175 14.1359 10.7157 14.1342 10.712 14.1322C10.7079 14.1301 10.7035 14.1282 10.699 14.1268C10.6953 14.1248 10.6898 14.1231 10.6861 14.1211C10.6288 14.1016 10.5691 14.0806 10.5126 14.0583C10.4561 14.0361 10.3942 14.0141 10.3371 13.9901C10.2318 13.9494 10.1266 13.9051 10.023 13.8607C9.97312 13.8412 9.92341 13.8183 9.87525 13.7942C9.82534 13.7747 9.77562 13.7517 9.72747 13.7277C9.72006 13.724 9.7109 13.7203 9.70349 13.7168C9.5908 13.6649 9.48006 13.6095 9.37107 13.5522C9.35333 13.5447 9.33607 13.5361 9.3194 13.5265C9.20106 13.4655 9.08662 13.4027 8.97217 13.3362C8.96484 13.3342 8.95813 13.3304 8.95267 13.3251C8.89418 13.2937 8.83569 13.2586 8.78091 13.2253C8.70526 13.181 8.63137 13.1367 8.55748 13.0888C8.53798 13.0779 8.52063 13.0668 8.50211 13.0537C8.43933 13.0147 8.3746 12.9726 8.31182 12.9301C8.18627 12.8468 8.06246 12.762 7.94139 12.6716C7.93314 12.6672 7.92564 12.6615 7.91916 12.6548C7.89803 12.6413 7.87771 12.6265 7.85833 12.6105C7.85463 12.6086 7.85092 12.6051 7.84722 12.6031C7.82772 12.5903 7.81018 12.5754 7.7936 12.5626C7.77703 12.5497 7.76046 12.5384 7.74369 12.5255C7.73999 12.5238 7.73628 12.5201 7.73278 12.5181C7.71796 12.507 7.7049 12.4959 7.69027 12.483C7.65518 12.4573 7.62184 12.4314 7.5887 12.4037C7.56842 12.3893 7.5489 12.3739 7.53021 12.3575C7.51558 12.3464 7.50077 12.3352 7.48595 12.3224C7.47113 12.3095 7.45456 12.2964 7.43974 12.2834C7.42687 12.2742 7.41401 12.2639 7.40289 12.2537L7.39919 12.25C7.37696 12.2317 7.35474 12.2151 7.33446 12.1966C7.2865 12.1559 7.23854 12.1153 7.19038 12.0728C7.17927 12.0637 7.17088 12.0562 7.16094 12.0471C7.15119 12.0396 7.14195 12.0316 7.13326 12.0229C7.0814 11.9786 7.03168 11.9324 6.97982 11.8845C6.96695 11.8734 6.95408 11.8623 6.94083 11.8494C6.92757 11.8365 6.91314 11.8235 6.90027 11.8104C6.87259 11.7845 6.8449 11.7587 6.81722 11.731C6.80277 11.719 6.78916 11.706 6.77647 11.692C6.70999 11.6291 6.6435 11.5626 6.57702 11.4944C6.54738 11.4647 6.516 11.4333 6.48461 11.4002C6.3185 11.2284 6.1596 11.051 6.00441 10.8664C5.99963 10.8612 5.99532 10.8557 5.99154 10.8498C5.96561 10.8202 5.93987 10.7888 5.91355 10.7574C5.89133 10.7315 5.86929 10.7038 5.84707 10.6761C5.84161 10.6687 5.83596 10.6613 5.83225 10.6566C5.79326 10.6104 5.7566 10.5624 5.72151 10.5162C5.66795 10.4479 5.61598 10.3795 5.56554 10.3111C5.55072 10.2928 5.53785 10.2721 5.52499 10.254C5.51884 10.247 5.51325 10.2396 5.50822 10.2318C5.50422 10.2282 5.50108 10.2238 5.49906 10.2189C5.48794 10.2041 5.47683 10.1893 5.46767 10.1744C5.43433 10.1284 5.40294 10.084 5.37155 10.038C5.35554 10.0173 5.34076 9.99579 5.32729 9.97343C5.29044 9.91806 5.2534 9.86444 5.21831 9.80907C5.20173 9.7849 5.18692 9.76287 5.1721 9.73888C5.15728 9.7149 5.14071 9.69073 5.12589 9.66675C5.10639 9.6336 5.08358 9.60026 5.06506 9.56712C5.05101 9.54877 5.03861 9.5292 5.02802 9.50863L5.01145 9.48094C5.00404 9.46983 4.99663 9.45696 4.98922 9.44585C4.90071 9.29631 4.8157 9.14482 4.73265 8.99158C4.69931 8.9288 4.66597 8.86407 4.63282 8.79954C4.62569 8.78821 4.61918 8.7765 4.61333 8.76445C4.61333 8.7625 4.61157 8.7625 4.61157 8.76074C4.68956 8.78024 4.76754 8.79974 4.84787 8.81787C4.91065 8.83268 4.97362 8.8475 5.0364 8.86037C5.17483 8.89176 5.3152 8.91769 5.45753 8.94167H5.46299C5.46373 8.94233 5.46459 8.94284 5.46554 8.94313C5.46648 8.94344 5.46747 8.94354 5.46845 8.94342C5.48794 8.94732 5.50744 8.95083 5.52577 8.95278C5.55716 8.95824 5.58679 8.9639 5.61818 8.9676C5.71781 8.98417 5.81938 8.99899 5.92096 9.01186C5.92661 9.01186 5.93207 9.01361 5.93773 9.01361C6.02624 9.02473 6.11495 9.03584 6.20366 9.0452C6.21477 9.04695 6.22764 9.04695 6.23875 9.04871L6.3107 9.05436C6.41052 9.06352 6.5121 9.07093 6.61192 9.07834H6.62108C6.73553 9.08575 6.85192 9.09121 6.96637 9.09491C7.08081 9.09862 7.19915 9.10057 7.31555 9.10057C7.41167 9.10057 7.50584 9.09862 7.6 9.09686C7.64251 9.09491 7.68306 9.09491 7.72556 9.09121C7.8014 9.08945 7.87705 9.08575 7.9527 9.08205C7.9952 9.07834 8.03965 9.07659 8.08196 9.07288L8.16326 9.06723C8.21512 9.06352 8.26484 9.05982 8.31475 9.05436L8.37012 9.04871C8.40151 9.04695 8.43485 9.04325 8.4676 9.03954C8.48433 9.0387 8.501 9.03687 8.51751 9.03408C8.58399 9.02843 8.65243 9.01927 8.71891 9.0101C8.80937 8.99899 8.90179 8.98593 8.99186 8.97111C9.0564 8.96175 9.11937 8.95161 9.1839 8.93972C9.24122 8.93036 9.29659 8.92022 9.35391 8.91009C9.41123 8.89995 9.47206 8.88611 9.53114 8.87324H9.53484L9.64207 8.85101L9.66781 8.84555C9.70115 8.83795 9.73624 8.83073 9.76938 8.82138C9.78069 8.81984 9.79184 8.81736 9.80272 8.81397C9.86355 8.79935 9.92282 8.78628 9.9819 8.77147C9.99476 8.76796 10.0059 8.76601 10.017 8.7623C10.0741 8.74749 10.1314 8.73286 10.1905 8.71609C10.2164 8.70869 10.2441 8.70128 10.2718 8.69406L10.366 8.66618C10.3937 8.65897 10.4213 8.65156 10.4473 8.6422C10.4562 8.64062 10.4648 8.63813 10.4732 8.63479C10.4915 8.62934 10.5083 8.62388 10.5266 8.61822C10.5303 8.61647 10.536 8.61647 10.5397 8.61452C10.5877 8.5999 10.6339 8.58683 10.6801 8.57026C10.691 8.56656 10.6996 8.56285 10.7115 8.55915C10.7234 8.55544 10.7372 8.55174 10.752 8.54628C10.813 8.52678 10.8739 8.50729 10.9329 8.4835C10.9524 8.47785 10.9737 8.46868 10.994 8.46128C10.9979 8.45915 11.0023 8.4579 11.0068 8.45757C11.0716 8.43535 11.1363 8.41136 11.1991 8.38563H11.2008C11.2359 8.37257 11.271 8.3597 11.3061 8.34488C11.3375 8.33377 11.3708 8.3209 11.4022 8.30589C11.4687 8.28015 11.5332 8.25247 11.5972 8.22459L11.6249 8.21347C11.6765 8.19144 11.7302 8.16746 11.7838 8.14348L11.8058 8.13237C11.8189 8.12671 11.83 8.12126 11.8428 8.1156C11.8446 8.11385 11.8483 8.11385 11.8503 8.11209C11.9076 8.08792 11.9647 8.06023 12.022 8.03255C12.0268 8.02978 12.0317 8.0273 12.0368 8.02514C12.0515 8.01773 12.0682 8.00857 12.0848 8.00116C12.2454 7.92317 12.4024 7.84226 12.5576 7.7555C12.6055 7.72957 12.6537 7.70383 12.6999 7.67615C12.7219 7.66504 12.7442 7.65217 12.7664 7.63911C12.8069 7.61513 12.8457 7.59114 12.8863 7.56716C12.9058 7.55605 12.927 7.54318 12.9473 7.53012C13.0323 7.4804 13.1154 7.42854 13.1984 7.37415C13.2983 7.30942 13.3944 7.24469 13.4923 7.17821C13.5199 7.15871 13.5476 7.13765 13.5773 7.11738C13.5934 7.10744 13.6088 7.0963 13.6233 7.08404C13.6769 7.04719 13.7285 7.00839 13.7822 6.96959C13.8044 6.95478 13.8247 6.9382 13.8469 6.92163L13.8912 6.88829C13.9613 6.83468 14.0315 6.78126 14.1 6.72569L14.183 6.65921C14.2107 6.63718 14.2384 6.61495 14.2661 6.59097C14.2856 6.57615 14.3012 6.56134 14.3197 6.54652C14.3825 6.49485 14.4435 6.44124 14.5043 6.38587C14.5708 6.32874 14.6373 6.26889 14.702 6.20864C14.7665 6.15132 14.8295 6.09049 14.8923 6.02752C14.9568 5.96903 15.0179 5.90567 15.0787 5.84289C15.0806 5.84113 15.0806 5.84113 15.0824 5.84113L15.0843 5.83918C15.1454 5.77816 15.2044 5.71538 15.2635 5.65085C15.2967 5.61751 15.3263 5.58436 15.3577 5.55103L15.7383 6.20864C15.9098 6.50739 16 6.84583 16 7.1903C16 7.53476 15.9098 7.87322 15.7383 8.17195L15.0524 9.36046C15.0515 9.36254 15.0502 9.36445 15.0487 9.36611V9.36787L15.0467 9.36981L12.9707 12.966L12.7196 13.4017C12.578 13.6457 12.3857 13.8564 12.1556 14.0195C11.9255 14.1827 11.6631 14.2945 11.386 14.3475Z" fill="#F55233"/>
<path d="M7.31338 9.10021C7.1964 9.10021 7.08001 9.09832 6.9642 9.09456C6.84975 9.09085 6.73336 9.08539 6.61891 9.07798H6.60975C6.50993 9.07057 6.40835 9.06317 6.30853 9.054L6.23698 9.04854C6.22586 9.04679 6.213 9.04679 6.20188 9.04503C6.11317 9.03568 6.02446 9.02554 5.93595 9.01345C5.9303 9.01345 5.92484 9.0117 5.91918 9.0117C5.81761 8.99883 5.71603 8.98401 5.6164 8.96744C5.58501 8.96373 5.55538 8.95808 5.52399 8.95262C5.50449 8.95067 5.485 8.94716 5.46667 8.94326C5.46567 8.94338 5.4647 8.94326 5.46374 8.94297C5.46281 8.94266 5.46195 8.94217 5.46121 8.94151H5.45575C5.31343 8.91753 5.17305 8.8916 5.03462 8.86021C4.97185 8.84734 4.90887 8.83252 4.84609 8.8177C4.76674 8.79938 4.68739 8.78086 4.60979 8.76058C3.8407 7.24186 3.44135 5.56287 3.44429 3.86051C3.44429 3.76069 3.44605 3.66282 3.448 3.56299C3.44975 3.52985 3.44975 3.49476 3.4517 3.45966V3.44309L3.46281 3.22687C3.46457 3.19178 3.46652 3.15493 3.47022 3.11984C3.47198 3.07734 3.47568 3.03659 3.47938 2.99409C3.48309 2.9276 3.4905 2.85936 3.49596 2.79288C3.49791 2.77338 3.49966 2.75213 3.50337 2.73186C3.50337 2.71236 3.50707 2.6913 3.50902 2.66908C3.51097 2.64685 3.51448 2.62112 3.51818 2.59889C3.51692 2.59333 3.51754 2.5875 3.51994 2.58232C3.52364 2.53982 3.5293 2.49731 3.53476 2.45481C3.54041 2.41582 3.54587 2.37546 3.55133 2.33666C3.55698 2.28129 3.56614 2.22768 3.5755 2.17406C3.58467 2.11128 3.59383 2.05045 3.60689 1.98943C3.60494 1.98572 3.60689 1.98202 3.60865 1.97831C3.62165 1.89526 3.63647 1.81402 3.6531 1.73461C3.65458 1.7251 3.657 1.71576 3.66031 1.70673C3.66082 1.6947 3.66332 1.68284 3.66772 1.67163C3.68449 1.58487 3.70282 1.49811 3.72134 1.41311C3.72531 1.40035 3.72838 1.38732 3.7305 1.37412C3.73783 1.33732 3.74715 1.30093 3.75838 1.26513C3.77671 1.18714 3.79737 1.11013 3.81687 1.03429C3.8389 0.945583 3.86308 0.858823 3.88881 0.772063H3.89076C3.89203 0.769178 3.89261 0.766047 3.89252 0.7629V0.76095L3.89447 0.759196V0.757246C3.89573 0.754362 3.89634 0.751231 3.89622 0.748083L3.89798 0.746133C3.94984 0.570664 4.00521 0.398899 4.06623 0.227135C4.34872 0.0781814 4.66322 0.000225983 4.98257 0H11.0168C11.3619 6.97017e-05 11.7009 0.0908962 11.9998 0.263367C12.2987 0.435838 12.547 0.683886 12.7198 0.982626L15.3573 5.55203C15.3259 5.58537 15.2962 5.61852 15.2631 5.65185C15.2046 5.71639 15.145 5.77917 15.0839 5.84019L15.082 5.84214C15.0802 5.84214 15.0802 5.84214 15.0783 5.8439C15.0174 5.90667 14.9547 5.9677 14.8919 6.02853C14.8291 6.08936 14.7661 6.15058 14.7016 6.20965C14.6371 6.26873 14.5704 6.32975 14.5039 6.38687C14.4431 6.44224 14.3821 6.49586 14.3193 6.54753C14.2998 6.56234 14.2842 6.57716 14.2657 6.59198C14.238 6.61596 14.2103 6.63819 14.1826 6.66022L14.0995 6.7267C14.0311 6.78226 13.9609 6.83568 13.8907 6.8893L13.8465 6.92264C13.8243 6.93921 13.804 6.95578 13.7818 6.9706C13.7281 7.00959 13.6765 7.04859 13.6229 7.08505C13.6084 7.09729 13.593 7.10844 13.5768 7.11839C13.549 7.13788 13.5213 7.15894 13.4918 7.17921C13.3944 7.2457 13.2969 7.31043 13.198 7.37515C13.115 7.42682 13.0319 7.48044 12.9469 7.53113C12.9274 7.54419 12.9064 7.55706 12.8859 7.56817C12.8545 7.58767 12.8214 7.60716 12.7884 7.6253C12.781 7.63095 12.7738 7.63465 12.7664 7.64011C12.7441 7.65318 12.7219 7.66604 12.6999 7.67716C12.6537 7.70484 12.6055 7.73058 12.5576 7.75651C12.4016 7.84327 12.2456 7.92457 12.0848 8.00216C12.0682 8.00957 12.0514 8.01874 12.0368 8.02614C12.0317 8.02829 12.0268 8.03077 12.022 8.03355C11.9666 8.06124 11.9075 8.08717 11.8502 8.1131C11.8483 8.11485 11.8446 8.11485 11.8428 8.11661C11.83 8.12226 11.8188 8.12772 11.8058 8.13338C11.7449 8.16106 11.6859 8.1868 11.6248 8.21448L11.5972 8.22559C11.5324 8.25347 11.4679 8.28116 11.4022 8.30689C11.3708 8.31976 11.3375 8.33283 11.3061 8.34589C11.271 8.35876 11.2359 8.37357 11.2008 8.38664H11.199C11.1343 8.41237 11.0715 8.4346 11.0068 8.45858C11.0023 8.45889 10.9979 8.46016 10.9939 8.46228C10.9744 8.46969 10.9534 8.47885 10.9329 8.48451C10.8744 8.50849 10.813 8.52877 10.752 8.54729C10.7372 8.55275 10.7243 8.55645 10.7114 8.56015C10.6986 8.56386 10.691 8.56756 10.68 8.57127C10.6338 8.58784 10.5876 8.6009 10.5397 8.61553C10.536 8.61747 10.5303 8.61747 10.5266 8.61923C10.5083 8.62488 10.4915 8.63034 10.4732 8.6358C10.4648 8.63914 10.4561 8.64163 10.4473 8.64321C10.4213 8.65257 10.3936 8.65998 10.366 8.66719L10.2718 8.69507C10.2441 8.70228 10.2164 8.70969 10.1905 8.7171C10.132 8.73387 10.0735 8.74849 10.017 8.76331C10.0059 8.76701 9.99474 8.76896 9.98187 8.77247C9.92338 8.78729 9.86353 8.80035 9.8027 8.81498C9.7918 8.81837 9.78065 8.82084 9.76936 8.82238C9.73622 8.83174 9.70112 8.83896 9.66778 8.84656C9.66408 8.84656 9.66038 8.84831 9.65492 8.84831C9.64946 8.84831 9.64751 8.85007 9.64205 8.85202L9.53482 8.87424H9.53111C9.47262 8.88711 9.41296 8.89998 9.35389 8.91109C9.29482 8.92221 9.2412 8.93059 9.18388 8.94073C9.11935 8.95165 9.05637 8.96276 8.99184 8.97212C8.90137 8.98674 8.80896 8.9998 8.71889 9.01111C8.6524 9.02027 8.58397 9.02944 8.51749 9.03509C8.50097 9.03788 8.4843 9.03971 8.46758 9.04055C8.43443 9.04425 8.40304 9.04796 8.37009 9.04971L8.31472 9.05537C8.26481 9.06083 8.2151 9.06453 8.16324 9.06824L8.08193 9.07389C8.03963 9.07759 7.99518 9.07935 7.95267 9.08305C7.87703 9.08676 7.80138 9.09046 7.72554 9.09222C7.68499 9.09592 7.64248 9.09592 7.59998 9.09787C7.50425 9.09826 7.4095 9.10021 7.31338 9.10021Z" fill="#F5EC23"/>
<path d="M11.0166 14.3826H4.98238C4.63745 14.3829 4.29852 14.2924 3.99962 14.1203C3.70072 13.9481 3.45239 13.7003 3.27955 13.4018L0.263445 8.17298C0.110432 7.90888 0.0213717 7.61263 0.00339464 7.30794C-0.0145825 7.00323 0.039022 6.69856 0.159918 6.41829C0.18918 6.34627 0.223787 6.27655 0.263445 6.20968L0.442617 5.8993V5.89754L3.27955 0.982664C3.46656 0.662619 3.73905 0.401006 4.06643 0.227173C4.00541 0.398937 3.94946 0.570702 3.89818 0.746171L3.89642 0.748121C3.89654 0.751267 3.89596 0.754401 3.89467 0.757284C3.89461 0.758 3.8944 0.758696 3.89407 0.759331C3.89373 0.759967 3.89329 0.76053 3.89272 0.760988V0.762548C3.89284 0.765695 3.89223 0.768826 3.89097 0.771712H3.88902C3.86328 0.858471 3.8391 0.945231 3.81707 1.03394C3.79114 1.1207 3.76892 1.20765 3.75059 1.29617C3.73948 1.33516 3.73012 1.37415 3.72096 1.41315C3.69873 1.51063 3.6767 1.60714 3.65993 1.70677C3.65662 1.7158 3.65422 1.72514 3.65272 1.73465C3.63322 1.8177 3.61938 1.90271 3.60651 1.98946C3.59169 2.06511 3.57883 2.1427 3.56752 2.2203C3.56186 2.24993 3.55816 2.28132 3.55445 2.31271C3.53983 2.40688 3.52677 2.503 3.51761 2.59892C3.51215 2.63596 3.50844 2.67281 3.50474 2.70791C3.49363 2.81319 3.48251 2.92022 3.47705 3.0255C3.47399 3.04071 3.47275 3.05623 3.47335 3.07171C3.46218 3.20105 3.45477 3.33037 3.45112 3.45969C3.44547 3.59266 3.44371 3.72563 3.44371 3.86054C3.44077 5.56292 3.84012 7.24189 4.60922 8.76061C4.60922 8.76237 4.61097 8.76237 4.61097 8.76431C4.73848 9.01913 4.87691 9.26655 5.02469 9.5085C5.05608 9.56211 5.08942 9.61573 5.12217 9.6674C5.13699 9.69138 5.15181 9.71536 5.16838 9.73953C5.18495 9.76371 5.19801 9.78554 5.21459 9.80972C5.24968 9.86509 5.28672 9.91871 5.32357 9.97408C5.32535 9.97821 5.32786 9.98197 5.33098 9.98519C5.37348 10.0497 5.41774 10.1125 5.46395 10.1753C5.47134 10.1874 5.47935 10.1991 5.48793 10.2104C5.49904 10.2252 5.50742 10.24 5.52127 10.2548C5.58405 10.3433 5.64858 10.4303 5.71623 10.5171C5.75133 10.5633 5.78817 10.6112 5.82697 10.6574C5.8529 10.6908 5.88059 10.7257 5.90827 10.759C5.92777 10.783 5.94727 10.807 5.9693 10.8309C5.98041 10.8458 5.99133 10.8606 6.00439 10.8754C6.12995 11.0232 6.25785 11.1653 6.38672 11.3057C6.44755 11.3704 6.51033 11.435 6.57135 11.496C6.75969 11.6881 6.95426 11.8722 7.15508 12.0483C7.19017 12.0797 7.22527 12.1091 7.26036 12.1388C7.30462 12.1793 7.35082 12.2168 7.39684 12.2558C7.42452 12.278 7.45221 12.302 7.47989 12.3242C7.49471 12.3371 7.50953 12.3482 7.52415 12.3593C7.56119 12.3889 7.59804 12.4178 7.63508 12.446C7.66823 12.4737 7.70332 12.4997 7.73841 12.5273C7.75518 12.5385 7.77175 12.5513 7.78833 12.5644C7.82342 12.5921 7.85851 12.6178 7.89556 12.6437C8.03028 12.7436 8.16695 12.8387 8.30732 12.9319C8.3701 12.9744 8.43288 13.015 8.49761 13.0555C8.59002 13.114 8.68224 13.1725 8.77641 13.2273C8.83744 13.2643 8.90021 13.3012 8.96299 13.3365C9.2106 13.4767 9.46405 13.6078 9.72336 13.7297C9.77151 13.7519 9.82084 13.7759 9.87114 13.7962C10.0189 13.8646 10.1667 13.9274 10.3182 13.9865L10.5176 14.0645C10.573 14.0839 10.6266 14.105 10.682 14.1229C10.6857 14.1249 10.6912 14.1266 10.6949 14.1286C10.6994 14.1301 10.7037 14.1319 10.7079 14.1341C10.7116 14.136 10.7134 14.1378 10.7153 14.1378H10.7171C10.7321 14.1437 10.7476 14.1487 10.7633 14.1526C10.7707 14.1563 10.7781 14.158 10.7873 14.1617C10.8335 14.1783 10.8797 14.1931 10.9277 14.2079C10.9628 14.2208 10.9996 14.2319 11.0366 14.2448C11.0536 14.2506 11.0708 14.2556 11.0883 14.2596C11.0944 14.2631 11.101 14.2656 11.1078 14.267C11.1985 14.2947 11.2907 14.3224 11.3831 14.3483C11.2623 14.3717 11.1396 14.3832 11.0166 14.3826Z" fill="#00A76F"/>
<g style="mix-blend-mode:multiply" opacity="0.15">
<path d="M7.31339 9.10021C6.40132 9.10162 5.49276 8.98745 4.60941 8.76039C3.40421 6.37009 3.12212 3.61948 3.81707 1.0343C3.61938 3.93226 4.11439 11.3111 15.3571 5.55204C14.3377 6.67143 13.0955 7.56531 11.7103 8.17635C10.3251 8.78739 8.82737 9.10209 7.31339 9.10021Z" fill="black"/>
</g>
<g style="mix-blend-mode:multiply" opacity="0.15">
<path d="M11.3861 14.3475C9.93187 13.9363 8.57889 13.2278 7.4127 12.2667C6.24654 11.3056 5.29257 10.1129 4.61121 8.76404C4.70869 8.88765 7.76224 12.7166 12.9707 12.9659L12.7196 13.4017C12.578 13.6456 12.3857 13.8563 12.1556 14.0195C11.9256 14.1827 11.6631 14.2945 11.3861 14.3475Z" fill="black"/>
</g>
<g style="mix-blend-mode:multiply" opacity="0.25">
<path d="M10.697 14.1278C8.0547 13.1881 5.87544 11.2674 4.61117 8.76413C4.61015 8.76314 4.60955 8.76183 4.60941 8.76043C3.40421 6.37011 3.12212 3.6195 3.81707 1.03433C3.84105 0.945622 3.86503 0.858862 3.88901 0.772103C3.89096 0.768398 3.89096 0.764694 3.89272 0.762939C3.89281 0.766086 3.89221 0.769217 3.89096 0.772103C3.8742 0.847749 3.81883 1.08054 3.75234 1.44259C3.63936 2.05519 3.57695 2.67604 3.56576 3.29886C3.5603 3.4909 3.56206 3.6921 3.56771 3.89721C3.57512 4.10777 3.58604 4.32204 3.6028 4.54059C3.64342 4.99892 3.71002 5.45457 3.80225 5.90535C3.90198 6.38711 4.03401 6.86164 4.19745 7.32568C4.36338 7.80295 4.56281 8.26792 4.79424 8.71714C4.81081 8.75029 4.82933 8.78363 4.8459 8.81677C5.06504 9.23372 5.30865 9.63736 5.57546 10.0256C5.85953 10.4273 6.16605 10.8127 6.49356 11.1799C6.80472 11.5189 7.13458 11.8402 7.48164 12.1423C7.81406 12.4322 8.14647 12.6816 8.46056 12.905C8.78011 13.1212 9.07938 13.3096 9.35078 13.4685C9.4894 13.5421 9.61866 13.6143 9.73681 13.679C9.85866 13.7418 9.97077 13.7935 10.0729 13.8434C10.2761 13.9449 10.4406 14.0114 10.5514 14.0631C10.6194 14.0927 10.6693 14.1148 10.697 14.1278Z" fill="black"/>
</g>
<g style="mix-blend-mode:multiply" opacity="0.25">
<path d="M5.89852 8.9727C6.18668 8.98927 6.59669 9.00409 7.08625 8.99219C7.32995 8.98673 7.59316 8.9608 7.87859 8.94794C8.15368 8.91655 8.44399 8.88945 8.74482 8.83895C8.89631 8.81945 9.04779 8.79274 9.20104 8.7596C9.35428 8.72646 9.50947 8.69858 9.66467 8.65978C9.97661 8.58959 10.287 8.49913 10.5954 8.40125L11.0554 8.24528C11.2051 8.18679 11.3546 8.12713 11.5024 8.06981C11.6482 8.00528 11.7949 7.9423 11.9364 7.87953C12.0779 7.81675 12.2154 7.74305 12.3538 7.67832C12.4923 7.61359 12.6198 7.536 12.749 7.46776C12.8783 7.39952 13.004 7.32914 13.1222 7.25525C13.3641 7.11312 13.5839 6.96709 13.789 6.83237C13.9867 6.69004 14.173 6.56273 14.3319 6.44068C14.4879 6.31707 14.6293 6.21549 14.7402 6.12113C14.9285 5.96613 15.0486 5.86631 15.08 5.84058C14.068 6.87395 12.8596 7.69452 11.5258 8.25405C10.192 8.81357 8.75977 9.10073 7.31338 9.09864C6.69433 9.09901 6.07638 9.04643 5.46628 8.9415C5.5156 8.94696 5.66768 8.95983 5.89852 8.9727Z" fill="black"/>
</g>
<g style="mix-blend-mode:screen" opacity="0.4">
<path d="M15.0494 9.3662C15.0623 9.33851 15.1564 9.15017 15.319 8.83784C15.4077 8.66803 15.5185 8.46487 15.631 8.22838C15.7606 7.97007 15.8479 7.69259 15.8895 7.4066C15.9239 7.07403 15.8657 6.73845 15.7214 6.43684C15.5866 6.16519 15.4336 5.90297 15.2635 5.65191C15.2562 5.63849 15.2482 5.62547 15.2395 5.61292C15.2044 5.5556 15.1674 5.49594 15.1323 5.43745C14.7131 4.73733 14.2754 3.98573 13.8375 3.23434C13.6215 2.85571 13.4072 2.47885 13.1941 2.10763C12.9761 1.74012 12.7847 1.35584 12.5716 1.02537C12.3826 0.705763 12.1056 0.44734 11.7736 0.280995C11.4627 0.152175 11.1294 0.0862416 10.7929 0.0870037C10.4697 0.079595 10.1667 0.0704316 9.9027 0.0593186C9.63872 0.0482055 9.40574 0.0398222 9.21564 0.0316337C8.83507 0.0150616 8.61905 0.000244141 8.61905 0.000244141H11.0171C11.3622 0.000313842 11.7012 0.0911405 12.0002 0.263612C12.2991 0.436082 12.5474 0.684131 12.7201 0.982871L15.3576 5.55228L15.7382 6.2099C15.9097 6.50863 16 6.84709 16 7.19155C16 7.53602 15.9097 7.87446 15.7382 8.1732L15.0523 9.36054C15.0517 9.36257 15.0507 9.36448 15.0494 9.3662Z" fill="white"/>
</g>
<g style="mix-blend-mode:multiply" opacity="0.25">
<path d="M9.3266 14.3826H4.98238C4.63745 14.3829 4.29852 14.2924 3.99962 14.1202C3.70072 13.9481 3.45239 13.7003 3.27955 13.4018L0.263445 8.17298C0.110432 7.90886 0.0213717 7.61261 0.00339464 7.30792C-0.0145825 7.00323 0.039022 6.69855 0.159918 6.41829C0.18918 6.34627 0.223787 6.27653 0.263445 6.20968L0.442617 5.89929C0.433258 5.91879 0.423122 5.93828 0.409279 5.96207C0.359368 6.05955 0.287426 6.20402 0.211779 6.391C0.118606 6.61359 0.0678234 6.85162 0.0620456 7.09287C0.0648752 7.40129 0.139503 7.70481 0.280015 7.97938C0.427799 8.28431 0.640119 8.60015 0.843273 8.94738C1.05013 9.29072 1.2681 9.65277 1.49348 10.0296C1.9419 10.7795 2.40981 11.5866 2.88065 12.3938C3.09116 12.7987 3.32615 13.1904 3.58428 13.5667C3.84209 13.8979 4.21414 14.1212 4.62774 14.1927C5.03719 14.2486 5.45026 14.2733 5.86343 14.2666C6.26428 14.276 6.64329 14.2861 6.99423 14.2926C7.69435 14.3109 8.27613 14.3388 8.68614 14.351C9.09382 14.3711 9.3266 14.3826 9.3266 14.3826Z" fill="black"/>
</g>
<g style="mix-blend-mode:screen" opacity="0.4">
<path d="M3.89099 0.77202H3.88904C3.89058 0.766962 3.89247 0.762012 3.89469 0.757202C3.89407 0.762275 3.89282 0.767251 3.89099 0.77202Z" fill="white"/>
</g>
<g style="mix-blend-mode:screen" opacity="0.4">
<path d="M10.7175 14.1372C10.7044 14.1335 10.6453 14.115 10.5437 14.0818C10.4293 14.0411 10.2538 13.9986 10.045 13.9101C9.93974 13.8676 9.81964 13.8251 9.69409 13.7714C9.56853 13.7178 9.43186 13.6545 9.28778 13.5905C9.1437 13.5221 8.99416 13.4427 8.83351 13.3634C8.67461 13.2801 8.51572 13.1805 8.3461 13.0826C8.17979 12.9791 8.00627 12.8682 7.83256 12.7483C7.66079 12.6227 7.47986 12.5009 7.30615 12.3548C6.93445 12.0616 6.58333 11.7432 6.25528 11.4018C5.90546 11.0338 5.58088 10.6426 5.28377 10.2309C4.98312 9.80284 4.711 9.35547 4.46921 8.89165C4.23156 8.42295 4.02788 7.9378 3.85974 7.43994C3.69818 6.95931 3.57279 6.46727 3.48463 5.96795C3.39929 5.50188 3.34749 5.03028 3.32963 4.55679C3.32027 4.32965 3.31657 4.10973 3.32222 3.90112C3.32768 3.68666 3.3388 3.4837 3.35361 3.28795C3.40579 2.65831 3.51602 2.03481 3.68291 1.42545C3.74023 1.20572 3.79989 1.03766 3.83888 0.921267C3.86286 0.849325 3.88138 0.799414 3.89055 0.771729C3.1018 3.44619 3.36796 6.3212 4.63432 8.8054C5.90068 11.2896 8.0709 13.194 10.6985 14.1269C10.703 14.1283 10.7074 14.1302 10.7116 14.1323C10.7138 14.1352 10.7155 14.1372 10.7175 14.1372Z" fill="white"/>
</g>
<g style="mix-blend-mode:screen" opacity="0.4">
<path d="M7.88409 9.22208C7.60334 9.22032 7.33195 9.22208 7.08259 9.20258C6.6817 9.17685 6.28305 9.12382 5.8894 9.04388C5.6067 8.98539 5.448 8.94035 5.448 8.94035H5.46087C5.46159 8.94102 5.46246 8.9415 5.4634 8.94182C5.46434 8.94211 5.46533 8.94221 5.46632 8.94211C5.51624 8.95147 5.56615 8.95887 5.61606 8.96628C5.71569 8.98286 5.81726 8.99767 5.91884 9.01054C5.92449 9.01054 5.92995 9.0123 5.93561 9.0123C6.03523 9.02536 6.13681 9.03647 6.23663 9.04739L6.30858 9.05304C6.4084 9.06221 6.50998 9.06961 6.6098 9.07702H6.61896C6.73341 9.08443 6.8498 9.08989 6.96425 9.0936C7.07869 9.0973 7.19703 9.09925 7.31343 9.09925C7.5978 9.09925 7.88039 9.08814 8.16114 9.06591C8.23133 9.06045 8.29976 9.0548 8.368 9.04641C8.48498 9.03717 8.60137 9.02419 8.71718 9.00742C8.80764 8.99631 8.90006 8.98324 8.99013 8.96843C9.05467 8.95907 9.11764 8.94893 9.18217 8.93704C9.29915 8.91754 9.41613 8.89629 9.53311 8.87056C9.62357 8.85203 9.71228 8.83351 9.80099 8.81207C9.87294 8.79549 9.94507 8.77892 10.0155 8.7604C10.1324 8.73096 10.248 8.69938 10.3644 8.66428C10.4198 8.64966 10.4717 8.63289 10.5251 8.61632C10.5879 8.59799 10.6489 8.57947 10.7099 8.55783C10.7228 8.55413 10.7357 8.55042 10.7505 8.54496C10.8318 8.51903 10.9131 8.49135 10.9924 8.45996C11.1289 8.412 11.2654 8.36014 11.4007 8.30398C11.4672 8.27825 11.5317 8.25056 11.5957 8.22268C11.677 8.18954 11.76 8.1525 11.8413 8.1137C11.9226 8.07861 12.002 8.04 12.0833 7.99925C12.2439 7.92127 12.4009 7.84036 12.5561 7.7536C12.689 7.68166 12.8183 7.60776 12.946 7.52822C13.3475 7.28613 13.7326 7.01772 14.0986 6.72476C14.154 6.68226 14.2094 6.63625 14.2647 6.59004C14.2842 6.57523 14.2998 6.56041 14.3183 6.54559C14.3811 6.49393 14.4421 6.44031 14.503 6.38494C14.5694 6.32781 14.6359 6.26796 14.7007 6.20772C14.7652 6.1504 14.8282 6.08957 14.891 6.02659C14.9555 5.9681 15.0165 5.90474 15.0773 5.84196C15.0793 5.84021 15.081 5.83826 15.083 5.83826C15.0608 5.86594 14.9555 5.98409 14.7894 6.17438C14.5157 6.46809 14.2239 6.74444 13.9157 7.00181C13.7198 7.15778 13.5092 7.32701 13.271 7.48572C13.154 7.57072 13.031 7.65202 12.9017 7.72962C12.7725 7.80721 12.645 7.89222 12.5063 7.96358C12.2334 8.11682 11.9431 8.2646 11.6421 8.39757C11.4888 8.45859 11.3354 8.52137 11.1802 8.58415C11.0242 8.63952 10.8663 8.69489 10.7074 8.75046C10.3878 8.84794 10.064 8.93704 9.74153 9.00528C9.58296 9.04283 9.42264 9.07244 9.26113 9.09399C9.10243 9.12343 8.94353 9.1439 8.78834 9.15852C8.47913 9.20356 8.17225 9.20921 7.88409 9.22208Z" fill="white"/>
</g>
</svg>
